<?xml version="1.0" encoding="UTF-8" standalone="no"?>
<!-- Created with Inkscape (http://www.inkscape.org/) -->

<svg
   xmlns:dc="http://purl.org/dc/elements/1.1/"
   xmlns:cc="http://creativecommons.org/ns#"
   xmlns:rdf="http://www.w3.org/1999/02/22-rdf-syntax-ns#"
   xmlns:svg="http://www.w3.org/2000/svg"
   xmlns="http://www.w3.org/2000/svg"
   xmlns:xlink="http://www.w3.org/1999/xlink"
   xmlns:sodipodi="http://sodipodi.sourceforge.net/DTD/sodipodi-0.dtd"
   xmlns:inkscape="http://www.inkscape.org/namespaces/inkscape"
   width="165.31543mm"
   height="42.575062mm"
   viewBox="0 0 165.31543 42.575062"
   version="1.1"
   id="svg44915"
   inkscape:version="0.92.2 (5c3e80d, 2017-08-06)"
   sodipodi:docname="chemoton_header.svg">
  <defs
     id="defs44909">
    <linearGradient
       inkscape:collect="always"
       xlink:href="#linearGradient30857"
       id="linearGradient44450"
       gradientUnits="userSpaceOnUse"
       gradientTransform="matrix(5.1063927,0,0,5.1063927,184.8477,-423.9996)"
       x1="-25.142214"
       y1="100.93068"
       x2="-23.202196"
       y2="99.979874" />
    <linearGradient
       id="linearGradient30857"
       inkscape:collect="always">
      <stop
         id="stop30853"
         offset="0"
         style="stop-color:#162d50;stop-opacity:1" />
      <stop
         id="stop30855"
         offset="1"
         style="stop-color:#214478;stop-opacity:1" />
    </linearGradient>
    <linearGradient
       inkscape:collect="always"
       xlink:href="#linearGradient30857"
       id="linearGradient44452"
       gradientUnits="userSpaceOnUse"
       gradientTransform="matrix(5.1063927,0,0,5.1063927,184.8477,-423.9996)"
       x1="-25.431391"
       y1="102.69244"
       x2="-23.800648"
       y2="104.32368" />
    <linearGradient
       inkscape:collect="always"
       xlink:href="#linearGradient30869"
       id="linearGradient44454"
       gradientUnits="userSpaceOnUse"
       gradientTransform="matrix(5.1063927,0,0,5.1063927,184.8477,-423.9996)"
       x1="-21.294859"
       y1="104.78331"
       x2="-19.385118"
       y2="103.99786" />
    <linearGradient
       id="linearGradient30869"
       inkscape:collect="always">
      <stop
         id="stop30865"
         offset="0"
         style="stop-color:#214478;stop-opacity:1" />
      <stop
         id="stop30867"
         offset="1"
         style="stop-color:#2c5aa0;stop-opacity:1" />
    </linearGradient>
    <linearGradient
       inkscape:collect="always"
       xlink:href="#linearGradient30869"
       id="linearGradient44456"
       gradientUnits="userSpaceOnUse"
       gradientTransform="matrix(5.1063927,0,0,5.1063927,184.8477,-423.9996)"
       x1="-20.787462"
       y1="100.41087"
       x2="-19.010666"
       y2="102.3046" />
    <linearGradient
       y2="103.00241"
       x2="-14.525238"
       y1="103.23841"
       x1="-16.478189"
       gradientTransform="matrix(5.1063927,0,0,5.1063927,164.07791,-436.17043)"
       gradientUnits="userSpaceOnUse"
       id="linearGradient9934-6-7"
       xlink:href="#linearGradient30833"
       inkscape:collect="always" />
    <linearGradient
       inkscape:collect="always"
       id="linearGradient30833">
      <stop
         style="stop-color:#2c5aa0;stop-opacity:1"
         offset="0"
         id="stop30829" />
      <stop
         style="stop-color:#3771c8;stop-opacity:1"
         offset="1"
         id="stop30831" />
    </linearGradient>
    <linearGradient
       y2="104.74903"
       x2="-9.1473484"
       y1="103.8576"
       x1="-11.019732"
       gradientTransform="matrix(5.1063927,0,0,5.1063927,160.50318,-438.14153)"
       gradientUnits="userSpaceOnUse"
       id="linearGradient9936-2-1"
       xlink:href="#linearGradient30823"
       inkscape:collect="always" />
    <linearGradient
       inkscape:collect="always"
       id="linearGradient30823">
      <stop
         style="stop-color:#3771c8;stop-opacity:1"
         offset="0"
         id="stop30819" />
      <stop
         style="stop-color:#5f8dd3;stop-opacity:1"
         offset="1"
         id="stop30821" />
    </linearGradient>
    <linearGradient
       y2="101.95"
       x2="-27.981535"
       y1="102.69453"
       x1="-31.076025"
       gradientTransform="matrix(5.1063927,0,0,5.1063927,164.07791,-436.17043)"
       gradientUnits="userSpaceOnUse"
       id="linearGradient9938-2-4"
       xlink:href="#linearGradient30851"
       inkscape:collect="always" />
    <linearGradient
       id="linearGradient30851"
       inkscape:collect="always">
      <stop
         id="stop30847"
         offset="0"
         style="stop-color:#0b1728;stop-opacity:1" />
      <stop
         id="stop30849"
         offset="1"
         style="stop-color:#162d50;stop-opacity:1" />
    </linearGradient>
  </defs>
  <sodipodi:namedview
     id="base"
     pagecolor="#ffffff"
     bordercolor="#666666"
     borderopacity="1.0"
     inkscape:pageopacity="0.0"
     inkscape:pageshadow="2"
     inkscape:zoom="1.4"
     inkscape:cx="276.05878"
     inkscape:cy="-3.9110149"
     inkscape:document-units="mm"
     inkscape:current-layer="layer1"
     showgrid="false"
     fit-margin-top="0"
     fit-margin-left="0"
     fit-margin-right="0"
     fit-margin-bottom="0"
     inkscape:window-width="1920"
     inkscape:window-height="2061"
     inkscape:window-x="1920"
     inkscape:window-y="28"
     inkscape:window-maximized="0" />
  <metadata
     id="metadata44912">
    <rdf:RDF>
      <cc:Work
         rdf:about="">
        <dc:format>image/svg+xml</dc:format>
        <dc:type
           rdf:resource="http://purl.org/dc/dcmitype/StillImage" />
        <dc:title></dc:title>
      </cc:Work>
    </rdf:RDF>
  </metadata>
  <g
     inkscape:label="Layer 1"
     inkscape:groupmode="layer"
     id="layer1"
     transform="translate(160.52081,-45.146988)">
    <g
       id="g44564"
       transform="translate(-174.5683,-136.24152)">
      <text
         xml:space="preserve"
         style="font-style:normal;font-weight:normal;font-size:28.19556427px;line-height:1.25;font-family:sans-serif;letter-spacing:0px;word-spacing:0px;fill:#1a1a1a;fill-opacity:1;stroke:#1a1a1a;stroke-width:0.53828228"
         x="134.10977"
         y="207.69914"
         id="text1305-6-1-5-0-9-8-6-7-2-4"
         transform="scale(1.0001836,0.99981643)"><tspan
           sodipodi:role="line"
           id="tspan1303-4-4-1-2-4-7-6-9-12-4"
           x="134.10977"
           y="207.69914"
           style="font-style:normal;font-variant:normal;font-weight:500;font-stretch:normal;font-family:Roboto;-inkscape-font-specification:'Roboto Medium';fill:#1a1a1a;fill-opacity:1;stroke:#1a1a1a;stroke-width:0.53828228"><tspan
             style="font-style:normal;font-variant:normal;font-weight:500;font-stretch:normal;font-size:23.39514923px;font-family:Roboto;-inkscape-font-specification:'Roboto Medium';fill:#1a1a1a;fill-opacity:1;stroke:#1a1a1a;stroke-width:0.53828228"
             id="tspan873-5-9-1-6-6-0-7-3-4">TON</tspan></tspan></text>
      <path
         style="fill:#214478;fill-opacity:1;stroke:#214478;stroke-width:0.89220351;stroke-linecap:butt;stroke-linejoin:miter;stroke-miterlimit:4;stroke-dasharray:none;stroke-opacity:1"
         d="m 49.314149,181.83461 a 4.0683934,4.0683934 0 0 1 3.423103,1.86971 l 6.667103,10.37993 a 4.0683934,4.0683934 0 0 1 0.240118,3.96863 l -11.193151,23.16614 a 4.0683934,4.0683934 0 0 1 -3.663207,2.29845 H 29.754921 A 4.0683934,4.0683934 0 0 1 26.0917,221.21902 L 14.898562,198.05288 a 4.0683934,4.0683934 0 0 1 0.240105,-3.96863 l 6.667116,-10.37993 a 4.0683934,4.0683934 0 0 1 3.423103,-1.86971 z"
         id="path2304-5-7-5-2-7-3"
         inkscape:connector-curvature="0"
         sodipodi:nodetypes="ccccccc" />
      <path
         inkscape:connector-curvature="0"
         d="m 42.812592,211.29374 0.338092,-0.072 0.363388,-0.0169 0.105146,0.23107 -0.251478,0.26286 -0.276394,0.20757 0.110192,0.30326 0.345182,-0.0182 0.361548,0.0402 0.06764,0.24468 -0.2895,0.22027 -0.30547,0.16178 0.06137,0.31675 0.343778,0.036 0.350814,0.0963 0.02851,0.25223 -0.320388,0.1723 -0.327004,0.112 0.01091,0.32246 0.333904,0.0893 0.331435,0.14995 -0.01091,0.25361 -0.343396,0.12004 -0.340505,0.0595 -0.03955,0.32022 0.31582,0.14049 0.303887,0.19995 -0.05073,0.24873 -0.357947,0.0649 -0.345618,0.005 -0.08919,0.31009 0.28995,0.18816 0.26888,0.24504 -0.08905,0.23773 -0.363675,0.008 -0.342223,-0.0486 -0.136554,0.29233 0.25696,0.23121 0.227231,0.28407 -0.125194,0.22087 -0.36047,-0.049 -0.330385,-0.10161 -0.180604,0.26737 0.217616,0.26856 0.17999,0.31613 -0.158169,0.19856 -0.348374,-0.10473 -0.310421,-0.15204 -0.220206,0.23583 0.172925,0.2993 0.12833,0.34039 -0.187272,0.17137 -0.327699,-0.15793 -0.282818,-0.19873 -0.254395,0.19848 0.123965,0.32265 0.07351,0.35628 -0.211792,0.13997 -0.298951,-0.20725 -0.24826,-0.24053 -0.2823,0.15623 0.07201,0.33808 0.01691,0.3634 -0.231076,0.10512 -0.262852,-0.25148 -0.207578,-0.2764 -0.303261,0.11017 0.01827,0.34517 -0.04023,0.36156 -0.244659,0.0677 -0.22029,-0.28951 -0.161769,-0.30546 -0.316762,0.0614 -0.036,0.34378 -0.09628,0.35081 -0.252242,0.0285 -0.172285,-0.32039 -0.111965,-0.32702 -0.322462,0.0111 -0.08933,0.33391 -0.149945,0.33143 -0.25362,-0.0112 -0.120011,-0.3434 -0.05946,-0.34051 -0.320225,-0.0395 -0.140482,0.31583 -0.199956,0.30389 -0.248736,-0.0508 -0.06492,-0.35795 -0.0054,-0.34562 -0.310094,-0.0891 -0.188158,0.28995 -0.245028,0.26888 -0.237731,-0.089 -0.0082,-0.36368 0.04869,-0.34223 -0.292337,-0.13655 -0.231199,0.25696 -0.284081,0.22723 -0.220862,-0.12515 0.04895,-0.36046 0.1016,-0.33039 -0.267366,-0.18061 -0.268566,0.21762 -0.316107,0.17998 -0.198564,-0.15816 0.104737,-0.34837 0.152046,-0.31044 -0.235836,-0.22019 -0.299292,0.17291 -0.340395,0.12833 -0.171371,-0.18728 0.157938,-0.3277 0.198728,-0.28282 -0.198482,-0.25438 -0.322653,0.12398 -0.356271,0.0735 -0.139977,-0.21178 0.207252,-0.29897 0.240528,-0.24824 -0.156233,-0.28231 -0.338078,0.072 -0.363389,0.0169 -0.105146,-0.23107 0.251465,-0.26287 0.276407,-0.20756 -0.110191,-0.30327 -0.345183,0.0182 -0.361548,-0.0402 -0.06765,-0.24467 0.2895,-0.22028 0.30547,-0.16178 -0.06137,-0.31676 -0.343778,-0.036 -0.350815,-0.0962 -0.02851,-0.25224 0.32039,-0.17229 0.327016,-0.112 -0.01091,-0.32246 -0.333918,-0.0893 -0.331423,-0.14995 0.01091,-0.25362 0.343396,-0.12004 0.340504,-0.0594 0.03955,-0.32023 -0.31582,-0.14048 -0.303902,-0.19995 0.05073,-0.24873 0.357947,-0.0649 0.345619,-0.005 0.08919,-0.31009 -0.289963,-0.18817 -0.268866,-0.24502 0.08905,-0.23773 0.363689,-0.008 0.342224,0.0486 0.136553,-0.29233 -0.256961,-0.2312 -0.22723,-0.28408 0.125194,-0.22087 0.36047,0.0489 0.330386,0.1016 0.180603,-0.26737 -0.217616,-0.26856 -0.17999,-0.31612 0.158156,-0.19857 0.348388,0.10472 0.310419,0.15204 0.220208,-0.23582 -0.172925,-0.29929 -0.128331,-0.3404 0.187286,-0.17138 0.327699,0.15794 0.282817,0.19873 0.254383,-0.19847 -0.123966,-0.32267 -0.07351,-0.35626 0.211779,-0.13998 0.298965,0.20726 0.248246,0.24052 0.282309,-0.15624 -0.07201,-0.33808 -0.01691,-0.36338 0.231063,-0.10513 0.262865,0.25147 0.207565,0.2764 0.30326,-0.11015 -0.01814,-0.34519 0.04023,-0.36154 0.244673,-0.0677 0.220275,0.2895 0.16177,0.30546 0.316775,-0.0614 0.036,-0.34378 0.09628,-0.35081 0.252242,-0.0285 0.172298,0.32039 0.111966,0.32702 0.322462,-0.0111 0.08933,-0.33392 0.14996,-0.33143 0.253605,0.0112 0.120011,0.3434 0.05946,0.3405 0.320212,0.0395 0.140495,-0.31581 0.199955,-0.3039 0.248723,0.0508 0.06492,0.35795 0.0054,0.34562 0.310093,0.0891 0.188158,-0.28997 0.245028,-0.26886 0.237731,0.089 0.0082,0.36368 -0.04869,0.34222 0.292337,0.13655 0.231213,-0.25695 0.284072,-0.22723 0.220861,0.12514 -0.04896,0.36047 -0.101601,0.33039 0.26738,0.1806 0.268552,-0.21762 0.316121,-0.17999 0.198578,0.15816 -0.104738,0.34838 -0.152032,0.31043 0.235823,0.2202 0.299291,-0.17293 0.340395,-0.12832 0.171385,0.18728 -0.157937,0.3277 -0.198729,0.28282 0.198469,0.25438 0.322653,-0.12398 0.356284,-0.0735 0.139976,0.21178 -0.207265,0.29897 -0.240527,0.24824 z"
         style="fill:#ffffff;fill-opacity:1;stroke:#ffffff;stroke-width:0.30512947"
         id="path3046-7-6-5-6-8" />
      <text
         xml:space="preserve"
         style="font-style:normal;font-weight:normal;font-size:28.19556427px;line-height:1.25;font-family:sans-serif;letter-spacing:0px;word-spacing:0px;fill:#ffffff;fill-opacity:1;stroke:#ffffff;stroke-width:0.53828228"
         x="37.150814"
         y="207.68425"
         id="text1305-6-1-5-0-7-3-6-80-3-7"
         transform="scale(1.0001836,0.99981642)"><tspan
           sodipodi:role="line"
           id="tspan1303-4-4-1-2-40-3-2-6-5-0"
           x="37.150814"
           y="207.68425"
           style="font-style:normal;font-variant:normal;font-weight:500;font-stretch:normal;font-family:Roboto;-inkscape-font-specification:'Roboto Medium';fill:#ffffff;fill-opacity:1;stroke:#ffffff;stroke-width:0.53828228"><tspan
             style="font-style:normal;font-variant:normal;font-weight:500;font-stretch:normal;font-size:30.0794735px;font-family:Roboto;-inkscape-font-specification:'Roboto Medium';fill:#ffffff;fill-opacity:1;stroke:#ffffff;stroke-width:0.53828228"
             id="tspan875-4-3-3-99-2-1-5-4-4">C</tspan><tspan
             style="font-style:normal;font-variant:normal;font-weight:500;font-stretch:normal;font-size:23.39514923px;font-family:Roboto;-inkscape-font-specification:'Roboto Medium';fill:#ffffff;fill-opacity:1;stroke:#ffffff;stroke-width:0.53828228"
             id="tspan873-5-9-1-1-3-4-4-1-2" /></tspan></text>
      <path
         inkscape:connector-curvature="0"
         d="m 29.932469,192.51919 0.147124,-0.0137 0.228293,0.0344 0.381704,0.16276 v 0.25864 l -0.381704,0.16276 -0.228293,0.0343 -0.147124,-0.0138 -0.06668,0.42088 0.144177,0.0323 0.206515,0.10319 0.312724,0.27276 -0.07991,0.24598 -0.413316,0.0368 -0.227735,-0.0379 -0.135695,-0.0586 -0.19345,0.37968 0.127103,0.0753 0.16451,0.16196 0.213143,0.35603 -0.152019,0.20925 -0.404478,-0.0927 -0.204879,-0.10642 -0.110874,-0.0976 -0.301309,0.30132 0.09764,0.11091 0.106374,0.20486 0.09274,0.40449 -0.209255,0.15202 -0.356025,-0.21314 -0.161961,-0.16451 -0.07528,-0.12713 -0.379685,0.19346 0.0585,0.13567 0.03791,0.22773 -0.03682,0.41331 -0.245982,0.0799 -0.272753,-0.31273 -0.103237,-0.20651 -0.03233,-0.14418 -0.420871,0.0667 0.01378,0.14713 -0.03437,0.22828 -0.162765,0.38172 h -0.258638 l -0.162765,-0.38172 -0.03437,-0.22828 0.01378,-0.14713 -0.420885,-0.0667 -0.03232,0.14418 -0.103237,0.20651 -0.272753,0.31273 -0.245982,-0.0799 -0.03682,-0.41331 0.03791,-0.22773 0.0585,-0.13567 -0.379672,-0.19346 -0.07528,0.12713 -0.16196,0.16451 -0.356038,0.21314 -0.209243,-0.15202 0.09274,-0.40449 0.106374,-0.20486 0.09764,-0.11091 -0.301324,-0.30132 -0.110874,0.0976 -0.204878,0.10642 -0.404465,0.0927 -0.152033,-0.20925 0.213143,-0.35603 0.164511,-0.16196 0.127103,-0.0753 -0.193463,-0.37968 -0.135695,0.0586 -0.227721,0.0379 -0.413331,-0.0368 -0.07991,-0.24598 0.312725,-0.27276 0.206501,-0.10319 0.14419,-0.0323 -0.06668,-0.42088 -0.147122,0.0138 -0.228295,-0.0343 -0.381704,-0.16276 v -0.25864 l 0.381704,-0.16276 0.228295,-0.0344 0.147122,0.0137 0.06668,-0.42088 -0.14419,-0.0323 -0.206501,-0.1032 -0.312725,-0.27275 0.07991,-0.24598 0.413331,-0.0368 0.227721,0.0379 0.135695,0.0586 0.193463,-0.37967 -0.127103,-0.0753 -0.164511,-0.16196 -0.213143,-0.35603 0.152033,-0.20925 0.404465,0.0927 0.204878,0.10642 0.110874,0.0976 0.301324,-0.30131 -0.09764,-0.11091 -0.106374,-0.20487 -0.09274,-0.40448 0.209243,-0.15202 0.356038,0.21314 0.16196,0.16451 0.07528,0.12712 0.379672,-0.19345 -0.0585,-0.13567 -0.03791,-0.22773 0.03682,-0.41332 0.245982,-0.0799 0.272753,0.31273 0.103237,0.20651 0.03232,0.14418 0.420885,-0.0667 -0.01378,-0.14712 0.03437,-0.22829 0.162765,-0.38171 h 0.258638 l 0.162765,0.38171 0.03437,0.22829 -0.01378,0.14712 0.420871,0.0667 0.03233,-0.14418 0.103237,-0.20651 0.272739,-0.31273 0.245982,0.0799 0.03682,0.41332 -0.03791,0.22773 -0.0585,0.13567 0.379687,0.19345 0.07528,-0.12712 0.16196,-0.16451 0.356024,-0.21314 0.209257,0.15202 -0.09274,0.40448 -0.106373,0.20487 -0.09765,0.11091 0.301311,0.30132 0.110874,-0.0976 0.204878,-0.10641 0.404479,-0.0927 0.152019,0.20925 -0.213143,0.35603 -0.164511,0.16196 -0.127103,0.0753 0.19345,0.37968 0.135695,-0.0585 0.227721,-0.0379 0.413316,0.0368 0.07991,0.24598 -0.312725,0.27275 -0.206515,0.1032 -0.144177,0.0324 z"
         style="fill:#ffffff;fill-opacity:1;stroke:#ffffff;stroke-width:0.23606217"
         id="path3263-9-6-3-0-0" />
      <circle
         r="1.1695246"
         cy="192.83182"
         cx="26.596642"
         style="fill:#214478;fill-opacity:1;stroke:#ffffff;stroke-width:0.23606217"
         id="path3265-40-8-6-2-5" />
      <text
         xml:space="preserve"
         style="font-style:normal;font-weight:normal;font-size:28.19556427px;line-height:1.25;font-family:sans-serif;letter-spacing:0px;word-spacing:0px;fill:#1a1a1a;fill-opacity:1;stroke:#1a1a1a;stroke-width:0.53828228"
         x="60.536213"
         y="207.66974"
         id="text1305-6-1-5-0-7-3-1-4-2-23-8"
         transform="scale(1.0001836,0.99981643)"><tspan
           sodipodi:role="line"
           id="tspan1303-4-4-1-2-40-3-9-0-2-6-7"
           x="60.536213"
           y="207.66974"
           style="font-style:normal;font-variant:normal;font-weight:500;font-stretch:normal;font-family:Roboto;-inkscape-font-specification:'Roboto Medium';fill:#1a1a1a;fill-opacity:1;stroke:#1a1a1a;stroke-width:0.53828228"><tspan
             style="font-style:normal;font-variant:normal;font-weight:500;font-stretch:normal;font-size:23.39514923px;font-family:Roboto;-inkscape-font-specification:'Roboto Medium';fill:#1a1a1a;fill-opacity:1;stroke:#1a1a1a;stroke-width:0.53828228"
             id="tspan873-5-9-1-1-3-0-6-2-9-7">HEM</tspan></tspan></text>
      <path
         sodipodi:open="true"
         style="opacity:1;fill:none;fill-opacity:1;fill-rule:nonzero;stroke:#666666;stroke-width:0.71376282;stroke-linecap:round;stroke-linejoin:round;stroke-miterlimit:4;stroke-dasharray:none;stroke-dashoffset:0;stroke-opacity:1;paint-order:normal"
         id="path6137-9-59-9-6"
         sodipodi:type="arc"
         sodipodi:cx="16.710012"
         sodipodi:cy="-193.93919"
         sodipodi:rx="4.104166"
         sodipodi:ry="4.1041298"
         sodipodi:start="6.2543339"
         sodipodi:end="2.6885203"
         d="m 20.81247,-194.05759 a 4.104166,4.1041298 0 0 1 -3.123052,4.10395 4.104166,4.1041298 0 0 1 -4.669488,-2.18905"
         transform="matrix(-0.97523754,0.22115999,-0.22116736,-0.97523587,0,0)" />
      <path
         style="opacity:1;fill:none;fill-opacity:1;fill-rule:nonzero;stroke:#666666;stroke-width:0.71376806;stroke-linecap:round;stroke-linejoin:round;stroke-miterlimit:4;stroke-dasharray:none;stroke-dashoffset:0;stroke-opacity:1;paint-order:normal"
         id="path6137-9-6-0-6-8"
         sodipodi:type="arc"
         sodipodi:cx="192.94145"
         sodipodi:cy="99.112671"
         sodipodi:rx="7.0296822"
         sodipodi:ry="7.0190129"
         sodipodi:start="0.62418049"
         sodipodi:end="1.9550718"
         sodipodi:open="true"
         d="m 198.64563,103.21481 a 7.0296822,7.0190129 0 0 1 -8.33952,2.40498"
         transform="matrix(0.60131356,0.79901315,-0.79575114,0.60562375,0,0)" />
      <path
         inkscape:connector-curvature="0"
         id="path7750-5-4-1"
         d="m 22.622106,193.85479 7.940545,22.65362"
         style="fill:none;stroke:#666666;stroke-width:0.71376282;stroke-linecap:butt;stroke-linejoin:miter;stroke-miterlimit:4;stroke-dasharray:none;stroke-opacity:1" />
      <g
         style="fill:#214478;fill-opacity:1;stroke:#ffffff;stroke-width:0.65399534"
         transform="matrix(0.81211505,-0.36945402,0.36945402,0.81211505,8.8553309,183.36298)"
         id="g7840-8-1-8">
        <circle
           id="path3048-2-3-5-0-0"
           style="fill:#214478;fill-opacity:1;stroke:#ffffff;stroke-width:0.34199536"
           cx="14.582878"
           cy="44.597698"
           r="1.711792" />
        <circle
           id="path3048-2-3-8-4-22-1"
           style="fill:#214478;fill-opacity:1;stroke:#ffffff;stroke-width:0.34199536"
           cx="14.582878"
           cy="41.438858"
           r="1.1751887" />
        <circle
           id="path3048-2-3-6-9-04-1"
           style="fill:#214478;fill-opacity:1;stroke:#ffffff;stroke-width:0.34199536"
           cx="14.582878"
           cy="47.826675"
           r="1.1751887" />
        <circle
           id="path3048-2-3-6-8-6-9-9"
           style="fill:#214478;fill-opacity:1;stroke:#ffffff;stroke-width:0.34199536"
           cx="17.811853"
           cy="44.597698"
           r="1.1751887" />
        <circle
           id="path3048-2-3-6-8-4-3-56-5"
           style="fill:#214478;fill-opacity:1;stroke:#ffffff;stroke-width:0.34199536"
           cx="11.353902"
           cy="44.597698"
           r="1.1751887" />
      </g>
      <g
         style="stroke-width:0.82575655"
         transform="matrix(0.43238802,0,0,0.43237372,114.73686,244.43689)"
         id="g17522-1-4">
        <path
           inkscape:connector-curvature="0"
           d="m 43.945419,-104.92264 0.84986,0.23128 0.84876,0.33055 v 0.66166 l -0.84876,0.33055 -0.84986,0.23128 -0.04039,0.77083 0.82102,0.31885 0.80956,0.41746 -0.06917,0.65803 -0.87866,0.24002 -0.86937,0.14118 -0.12075,0.76239 0.7832,0.40291 0.76148,0.4998 -0.13757,0.6472 -0.89893,0.14686 -0.87937,0.04953 -0.19978,0.74559 0.73679,0.48258 0.70507,0.57665 -0.20446,0.62928 -0.90936,0.05209 -0.87973,-0.04266 -0.27662,0.72062 0.68231,0.55695 0.64093,0.6472 -0.26912,0.60445 -0.90983,-0.04324 -0.87045,-0.13439 -0.35043,0.68776 0.62036,0.62522 0.56977,0.71064 -0.33083,0.57302 -0.90032,-0.13811 -0.85164,-0.22464 -0.4204,0.64736 0.55161,0.68664 0.49236,0.76631 -0.38891,0.5353 -0.88096,-0.23147 -0.82348,-0.31242 -0.48577,0.59987 0.47681,0.74054 0.40957,0.81357 -0.44274,0.49171 -0.85193,-0.32228 -0.78632,-0.39679 -0.54581,0.54581 0.39679,0.78632 0.32228,0.85193 -0.49171,0.44274 -0.81357,-0.40957 -0.74054,-0.47681 -0.59987,0.48577 0.31242,0.82348 0.23147,0.88096 -0.5353,0.38891 -0.76631,-0.49236 -0.68664,-0.55161 -0.64736,0.4204 0.22464,0.85164 0.13811,0.90032 -0.57302,0.33083 -0.71064,-0.56977 -0.62522,-0.62036 -0.68776,0.35043 0.13439,0.87045 0.04324,0.90983 -0.60445,0.26912 -0.6472,-0.64093 -0.55695,-0.68231 -0.72062,0.27662 0.04266,0.87973 -0.05209,0.90936 -0.62928,0.20446 -0.57665,-0.70507 -0.48258,-0.73679 -0.74559,0.19978 -0.04953,0.87937 -0.14686,0.89893 -0.6472,0.13757 -0.4998,-0.76148 -0.40291,-0.7832 -0.76239,0.12075 -0.14118,0.86937 -0.24002,0.87866 -0.65803,0.06917 -0.41746,-0.80956 -0.31885,-0.82102 -0.77083,0.04039 -0.23128,0.84986 -0.33055,0.84876 h -0.66166 l -0.33055,-0.84876 -0.23128,-0.84986 -0.77083,-0.04039 -0.31885,0.82102 -0.41746,0.80956 -0.65803,-0.06917 -0.24002,-0.87866 -0.14118,-0.86937 -0.76239,-0.12075 -0.40291,0.7832 -0.4998,0.76148 -0.6472,-0.13757 -0.14686,-0.89893 -0.04953,-0.87937 -0.74559,-0.19978 -0.48258,0.73679 -0.57665,0.70507 -0.62928,-0.20446 -0.05209,-0.90936 0.04266,-0.87973 -0.72062,-0.27662 -0.55695,0.68231 -0.6472,0.64093 -0.60445,-0.26912 0.04324,-0.90983 0.13439,-0.87045 -0.68776,-0.35043 -0.62522,0.62036 -0.71064,0.56977 -0.57302,-0.33083 0.13811,-0.90032 0.22464,-0.85164 -0.64736,-0.4204 -0.68664,0.55161 -0.76631,0.49236 -0.5353,-0.38891 0.23147,-0.88096 0.31242,-0.82348 -0.59987,-0.48577 -0.74054,0.47681 -0.81357,0.40957 -0.49171,-0.44274 0.32228,-0.85193 0.39679,-0.78632 -0.54581,-0.54581 -0.78632,0.39679 -0.85193,0.32228 -0.44274,-0.49171 0.40957,-0.81357 0.47681,-0.74054 -0.48577,-0.59987 -0.82348,0.31242 -0.88096,0.23147 -0.38891,-0.5353 0.49236,-0.76631 0.55161,-0.68664 -0.4204,-0.64736 -0.85164,0.22464 -0.90032,0.13811 -0.33083,-0.57302 0.56977,-0.71064 0.62036,-0.62522 -0.35043,-0.68776 -0.87045,0.13439 -0.90983,0.04324 -0.26912,-0.60445 0.64093,-0.6472 0.68231,-0.55695 -0.27662,-0.72062 -0.87973,0.04266 -0.90936,-0.05209 -0.20446,-0.62928 0.70507,-0.57665 0.73679,-0.48258 -0.19978,-0.74559 -0.87937,-0.04953 -0.89893,-0.14686 -0.13757,-0.6472 0.76148,-0.4998 0.7832,-0.40291 -0.12075,-0.76239 -0.86937,-0.14118 -0.87866,-0.24002 -0.06917,-0.65803 0.80956,-0.41746 0.82102,-0.31885 -0.04039,-0.77083 -0.84986,-0.23128 -0.84876,-0.33055 v -0.66166 l 0.84876,-0.33055 0.84986,-0.23128 0.04039,-0.77083 -0.82102,-0.31885 -0.80956,-0.41746 0.06917,-0.65803 0.87866,-0.24002 0.86937,-0.14118 0.12075,-0.76239 -0.7832,-0.40291 -0.76148,-0.4998 0.13757,-0.6472 0.89893,-0.14686 0.87937,-0.0495 0.19978,-0.74559 -0.73679,-0.48258 -0.70507,-0.57665 0.20446,-0.62928 0.90936,-0.0521 0.87973,0.0427 0.27662,-0.72062 -0.68231,-0.55695 -0.64093,-0.6472 0.26912,-0.60445 0.90983,0.0432 0.87045,0.13439 0.35043,-0.68776 -0.62036,-0.62522 -0.56977,-0.71064 0.33083,-0.57302 0.90032,0.13811 0.85164,0.22464 0.4204,-0.64736 -0.55161,-0.68664 -0.49236,-0.76631 0.38891,-0.5353 0.88096,0.23147 0.82348,0.31242 0.48577,-0.59987 -0.47681,-0.74054 -0.40957,-0.81357 0.44274,-0.49171 0.85193,0.32228 0.78632,0.39679 0.54581,-0.54581 -0.39679,-0.78632 -0.32228,-0.85193 0.49171,-0.44274 0.81357,0.40957 0.74054,0.47681 0.59987,-0.48577 -0.31242,-0.82348 -0.23147,-0.88096 0.5353,-0.38891 0.76631,0.49236 0.68664,0.55161 0.64736,-0.4204 -0.22464,-0.85164 -0.13811,-0.90032 0.57302,-0.33083 0.71064,0.56977 0.62522,0.62036 0.68776,-0.35043 -0.13439,-0.87045 -0.04324,-0.90983 0.60445,-0.26912 0.6472,0.64093 0.55695,0.68231 0.72062,-0.27662 -0.04266,-0.87973 0.05209,-0.90936 0.62928,-0.20446 0.57665,0.70507 0.48258,0.73679 0.74559,-0.19978 0.04953,-0.87937 0.14686,-0.89893 0.6472,-0.13757 0.4998,0.76148 0.40291,0.7832 0.76239,-0.12075 0.14118,-0.86937 0.24002,-0.87866 0.65803,-0.0692 0.41746,0.80956 0.31885,0.82102 0.77083,-0.0404 0.23128,-0.84986 0.33055,-0.84876 h 0.66166 l 0.33055,0.84876 0.23128,0.84986 0.77083,0.0404 0.31885,-0.82102 0.41746,-0.80956 0.65803,0.0692 0.24002,0.87866 0.14118,0.86937 0.76239,0.12075 0.40291,-0.7832 0.4998,-0.76148 0.6472,0.13757 0.14686,0.89893 0.04953,0.87937 0.74559,0.19978 0.48258,-0.73679 0.57665,-0.70507 0.62928,0.20446 0.05209,0.90936 -0.04266,0.87973 0.72062,0.27662 0.55695,-0.68231 0.6472,-0.64093 0.60445,0.26912 -0.04324,0.90983 -0.13439,0.87045 0.68776,0.35043 0.62522,-0.62036 0.71064,-0.56977 0.57302,0.33083 -0.13811,0.90032 -0.22464,0.85164 0.64736,0.4204 0.68664,-0.55161 0.76631,-0.49236 0.5353,0.38891 -0.23147,0.88096 -0.31242,0.82348 0.59987,0.48577 0.74054,-0.47681 0.81357,-0.40957 0.49171,0.44274 -0.32228,0.85193 -0.39679,0.78632 0.54581,0.54581 0.78632,-0.39679 0.85193,-0.32228 0.44274,0.49171 -0.40957,0.81357 -0.47681,0.74054 0.48577,0.59987 0.82348,-0.31242 0.88096,-0.23147 0.38891,0.5353 -0.49236,0.76631 -0.55161,0.68664 0.4204,0.64736 0.85164,-0.22464 0.90032,-0.13811 0.33083,0.57302 -0.56977,0.71064 -0.62036,0.62522 0.35043,0.68776 0.87045,-0.13439 0.90983,-0.0432 0.26912,0.60445 -0.64093,0.6472 -0.68231,0.55695 0.27662,0.72062 0.87973,-0.0427 0.90936,0.0521 0.20446,0.62928 -0.70507,0.57665 -0.73679,0.48258 0.19978,0.74559 0.87937,0.0495 0.89893,0.14686 0.13757,0.6472 -0.76148,0.4998 -0.7832,0.40291 0.12075,0.76239 0.86937,0.14118 0.87866,0.24002 0.06917,0.65803 -0.80956,0.41746 -0.82102,0.31885 z"
           style="fill:#1a1a1a;fill-opacity:1;stroke:#1a1a1a;stroke-width:0.21848141"
           id="path17058-4-0" />
        <circle
           r="23.151041"
           cy="-104.02998"
           cx="19.53809"
           style="fill:#ffffff;fill-opacity:1;stroke:#1a1a1a;stroke-width:0.21848141"
           id="path17060-3-0" />
      </g>
      <g
         id="g5001-6-4-6-3-4"
         transform="matrix(0.22263849,0,0,0.22263115,108.73412,173.5323)"
         style="stroke-width:2.28705716">
        <path
           sodipodi:nodetypes="cc"
           inkscape:connector-curvature="0"
           id="path1941-8-6-6-9-3-3-8-7"
           d="M 73.436206,83.034231 49.636469,94.80669"
           style="fill:none;stroke:url(#linearGradient44450);stroke-width:3.02872586;stroke-linecap:butt;stroke-linejoin:miter;stroke-miterlimit:4;stroke-dasharray:none;stroke-opacity:1" />
        <path
           sodipodi:nodetypes="cc"
           inkscape:connector-curvature="0"
           id="path1941-5-5-7-4-1-5-5"
           d="m 49.636469,94.80669 19.293002,19.28867"
           style="fill:none;stroke:url(#linearGradient44452);stroke-width:3.02872586;stroke-linecap:butt;stroke-linejoin:miter;stroke-miterlimit:4;stroke-dasharray:none;stroke-opacity:1" />
        <path
           sodipodi:nodetypes="cc"
           inkscape:connector-curvature="0"
           id="path1941-8-6-1-0-3-8-1"
           d="M 68.929473,114.09536 93.134536,104.06682"
           style="fill:none;stroke:url(#linearGradient44454);stroke-width:3.02872586;stroke-linecap:butt;stroke-linejoin:miter;stroke-miterlimit:4;stroke-dasharray:none;stroke-opacity:1" />
        <path
           sodipodi:nodetypes="cc"
           inkscape:connector-curvature="0"
           id="path1941-1-3-1-3-7-2"
           d="m 73.436206,83.034231 19.69833,21.032589"
           style="fill:none;stroke:url(#linearGradient44456);stroke-width:3.02872586;stroke-linecap:butt;stroke-linejoin:miter;stroke-miterlimit:4;stroke-dasharray:none;stroke-opacity:1" />
        <circle
           transform="rotate(-28.685643)"
           r="7.5332575"
           cy="108.08094"
           cx="24.544596"
           id="path1069-3-3-6-9-1-5-2-2"
           style="fill:#214478;fill-opacity:1;fill-rule:nonzero;stroke:#000000;stroke-width:0;stroke-miterlimit:4;stroke-dasharray:none;stroke-opacity:1" />
        <circle
           transform="rotate(-28.685643)"
           r="7.5332575"
           cy="135.98988"
           cx="31.735435"
           id="path1069-3-8-3-0-7-3-1-5"
           style="fill:#2c5aa0;fill-opacity:1;fill-rule:nonzero;stroke:#000000;stroke-width:0;stroke-miterlimit:4;stroke-dasharray:none;stroke-opacity:1" />
        <circle
           transform="rotate(-28.685643)"
           r="7.5332575"
           cy="106.98456"
           cx="-1.9849409"
           id="path1069-3-6-6-9-6-7-2-6"
           style="fill:#162d50;fill-opacity:1;fill-rule:nonzero;stroke:#000000;stroke-width:0;stroke-miterlimit:4;stroke-dasharray:none;stroke-opacity:1" />
        <g
           transform="rotate(106.30401,79.135359,105.01857)"
           id="g4977-7-8-9-8-5"
           style="stroke-width:2.28705716">
          <path
             style="fill:none;stroke:url(#linearGradient9934-6-7);stroke-width:3.02872586;stroke-linecap:butt;stroke-linejoin:miter;stroke-miterlimit:4;stroke-dasharray:none;stroke-opacity:1"
             d="M 97.447149,88.876867 72.364744,91.895988"
             id="path1941-9-57-7-2-5-23-3"
             inkscape:connector-curvature="0"
             sodipodi:nodetypes="cc" />
          <path
             style="opacity:1;fill:#5f8dd3;fill-opacity:1;stroke:url(#linearGradient9936-2-1);stroke-width:3.02476025;stroke-linecap:butt;stroke-linejoin:miter;stroke-miterlimit:4;stroke-dasharray:none;stroke-opacity:1"
             d="M 97.447149,88.876867 120.60446,99.978598"
             id="path1941-4-1-7-7-99-1-3"
             inkscape:connector-curvature="0"
             sodipodi:nodetypes="cc" />
          <circle
             style="fill:#3771c8;fill-opacity:1;fill-rule:nonzero;stroke:#000000;stroke-width:0;stroke-miterlimit:4;stroke-dasharray:none;stroke-opacity:1"
             id="path1069-3-7-0-2-4-9-6-8"
             cx="42.826168"
             cy="124.73936"
             r="7.5332575"
             transform="rotate(-28.685643)" />
          <circle
             style="fill:#5f8dd3;fill-opacity:1;fill-rule:nonzero;stroke:#000000;stroke-width:0;stroke-miterlimit:4;stroke-dasharray:none;stroke-opacity:1"
             id="path1069-3-2-3-9-0-96-89-7"
             cx="57.797527"
             cy="145.61583"
             r="7.5332575"
             transform="rotate(-28.685643)" />
        </g>
        <g
           transform="rotate(-39.680969,56.117067,59.939941)"
           id="g4981-2-4-1-7-7"
           style="stroke-width:2.28705716">
          <path
             style="fill:none;stroke:url(#linearGradient9938-2-4);stroke-width:3.02872586;stroke-linecap:butt;stroke-linejoin:miter;stroke-miterlimit:4;stroke-dasharray:none;stroke-opacity:1"
             d="M -2.1108582,90.220868 28.866677,82.635857"
             id="path1941-96-5-6-5-6-9-0"
             inkscape:connector-curvature="0"
             sodipodi:nodetypes="cc" />
          <circle
             style="fill:#0b1728;fill-opacity:1;fill-rule:nonzero;stroke:#000000;stroke-width:0;stroke-miterlimit:4;stroke-dasharray:none;stroke-opacity:1"
             id="path1069-3-6-4-9-2-0-8-7-5"
             cx="-45.179928"
             cy="78.122673"
             r="7.5332575"
             transform="rotate(-28.685643)" />
        </g>
        <circle
           transform="rotate(-28.685643)"
           r="7.5332575"
           cy="133.17889"
           cx="5.7018766"
           id="path1069-3-9-1-9-7-2-6"
           style="fill:#214478;fill-opacity:1;fill-rule:nonzero;stroke:#000000;stroke-width:0;stroke-miterlimit:4;stroke-dasharray:none;stroke-opacity:1" />
      </g>
      <path
         style="fill:none;stroke:#666666;stroke-width:0.71376282;stroke-linecap:butt;stroke-linejoin:miter;stroke-miterlimit:4;stroke-dasharray:none;stroke-opacity:1"
         d="m 29.831892,190.32142 10.289571,14.8315 c 1.233538,1.5009 2.968151,3.24276 6.742301,3.44022 l 66.861666,0.11891 m -76.410417,12.51777 76.929627,-6.29349"
         id="path5897-4-5-0-7"
         inkscape:connector-curvature="0"
         sodipodi:nodetypes="cccccc" />
      <path
         inkscape:connector-curvature="0"
         id="path39789-76-4"
         d="m 113.55393,207.45783 -0.15193,0.39061 -0.027,0.23153 0.0187,0.14793 -0.42221,0.0811 -0.0375,-0.14455 -0.11095,-0.20489 -0.28541,-0.30666 -0.24528,0.0887 -0.0237,0.41826 0.0458,0.2287 0.0635,0.13493 -0.37657,0.20743 -0.0798,-0.12564 -0.16901,-0.16056 -0.366,-0.20348 -0.20604,0.16034 0.10686,0.40477 0.11366,0.20342 0.10226,0.1083 -0.29375,0.31404 -0.1152,-0.0949 -0.21041,-0.10062 -0.41086,-0.0798 -0.14656,0.21606 0.22692,0.35195 0.17122,0.15771 0.13059,0.0719 -0.18242,0.3893 -0.13879,-0.0546 -0.23119,-0.0308 -0.41536,0.0509 -0.0726,0.25055 0.32418,0.26482 0.21169,0.0973 0.14668,0.028 -0.0534,0.42661 -0.14883,-0.009 -0.22928,0.0421 -0.37941,0.17707 0.009,0.26082 0.39014,0.15149 0.23154,0.027 0.14793,-0.0186 0.0811,0.42221 -0.14455,0.0375 -0.20489,0.11094 -0.30621,0.28539 0.0887,0.24529 0.41779,0.0237 0.2287,-0.0458 0.13493,-0.0634 0.20743,0.37657 -0.12562,0.0802 -0.16057,0.16855 -0.20346,0.36645 0.16034,0.20605 0.40476,-0.10686 0.2034,-0.11413 0.10876,-0.10227 0.31361,0.29423 -0.095,0.11519 -0.10017,0.20994 -0.0802,0.41087 0.21606,0.14657 0.35196,-0.22646 0.15818,-0.17124 0.0714,-0.13103 0.38932,0.18288 -0.0545,0.13878 -0.0308,0.23074 0.051,0.41582 0.25055,0.0725 0.26479,-0.32464 0.0973,-0.21169 0.028,-0.14622 0.4266,0.0534 -0.009,0.14884 0.0421,0.22882 0.17708,0.37987 0.26082,-0.009 0.15148,-0.39059 0.0271,-0.23108 -0.0187,-0.14793 0.42222,-0.0811 0.0375,0.14408 0.11095,0.20488 0.28541,0.30668 0.24528,-0.0887 0.0237,-0.41826 -0.0457,-0.22823 -0.0635,-0.13493 0.37656,-0.20789 0.0802,0.12607 0.16855,0.16057 0.36644,0.20301 0.20604,-0.16034 -0.10686,-0.40477 -0.1141,-0.20294 -0.10228,-0.10875 0.29421,-0.31407 0.1152,0.0949 0.20995,0.10064 0.41087,0.0802 0.14656,-0.21607 -0.22647,-0.35241 -0.17122,-0.15772 -0.13105,-0.0719 0.18288,-0.38933 0.13879,0.0545 0.23073,0.0308 0.41582,-0.0509 0.0725,-0.25055 -0.32464,-0.2648 -0.21169,-0.0973 -0.14622,-0.028 0.0534,-0.42661 0.14883,0.009 0.22882,-0.0421 0.37989,-0.17662 -0.008,-0.26081 -0.39061,-0.15195 -0.23108,-0.0271 -0.14793,0.0187 -0.0811,-0.42222 0.14408,-0.0375 0.20489,-0.11095 0.30668,-0.28541 -0.0887,-0.24529 -0.41826,-0.0237 -0.22824,0.0458 -0.13493,0.0635 -0.20789,-0.37655 0.12609,-0.0803 0.16056,-0.16854 0.20302,-0.36598 -0.16034,-0.20604 -0.40478,0.1064 -0.20294,0.1141 -0.10876,0.10228 -0.31406,-0.29421 0.095,-0.11474 0.10061,-0.21041 0.0802,-0.41088 -0.21606,-0.14656 -0.35241,0.22694 -0.15771,0.17122 -0.0719,0.13059 -0.3893,-0.18242 0.0545,-0.13879 0.0307,-0.2312 -0.051,-0.41581 -0.25055,-0.0725 -0.2648,0.32464 -0.0973,0.21168 -0.028,0.14668 -0.4266,-0.0534 0.009,-0.14884 -0.0421,-0.22928 -0.17663,-0.37989 z m 0.1715,1.25422 a 2.8718761,2.8718761 0 0 1 2.96412,2.77669 2.8718761,2.8718761 0 0 1 -2.77669,2.96413 2.8718761,2.8718761 0 0 1 -2.96412,-2.7767 2.8718761,2.8718761 0 0 1 2.77669,-2.96412 z"
         style="fill:#1a1a1a;fill-opacity:1;stroke:#1a1a1a;stroke-width:0.23606217" />
      <path
         sodipodi:nodetypes="ccccccccccccccccccccccccccccccccccccccccccccccccccccccccccccccccccccccccccccccccccccccccccccccccccccccccccccccccccccccccccccccccccccccccccccccccccccccccccccccccc"
         inkscape:connector-curvature="0"
         id="path39789-7-5-2"
         d="m 113.55393,207.45783 -0.15193,0.39061 -0.027,0.23153 0.0187,0.14793 -0.42221,0.0811 -0.0375,-0.14455 -0.11095,-0.20489 -0.28541,-0.30666 -0.24528,0.0887 -0.0237,0.41826 0.0457,0.2287 0.0635,0.13493 -0.37657,0.20743 -0.0798,-0.12564 -0.16901,-0.16056 -0.366,-0.20348 -0.20604,0.16034 0.10686,0.40477 0.11366,0.20342 0.10226,0.1083 -0.29375,0.31404 -0.1152,-0.0949 -0.21041,-0.10062 -0.41086,-0.0798 -0.14656,0.21606 0.22692,0.35195 0.17122,0.15771 0.13059,0.0719 -0.18242,0.3893 -0.13879,-0.0546 -0.23119,-0.0308 -0.41536,0.0509 -0.0726,0.25055 0.32418,0.26482 0.21169,0.0973 0.14668,0.028 -0.0534,0.42661 -0.14883,-0.009 -0.22928,0.0421 -0.37941,0.17707 0.009,0.26082 0.39014,0.15149 0.23154,0.027 0.14793,-0.0186 0.0811,0.42221 -0.14455,0.0375 -0.20488,0.11094 -0.30622,0.28539 0.0887,0.24529 0.41779,0.0237 0.2287,-0.0458 0.13493,-0.0634 0.20743,0.37657 -0.12562,0.0802 -0.16057,0.16855 -0.20346,0.36645 0.16034,0.20605 0.40476,-0.10686 0.2034,-0.11413 0.10876,-0.10227 0.31361,0.29423 -0.095,0.11519 -0.10017,0.20994 -0.0802,0.41087 0.21606,0.14657 0.35196,-0.22646 0.15818,-0.17124 0.0714,-0.13103 0.38932,0.18288 -0.0545,0.13878 -0.0308,0.23074 0.051,0.41582 0.25055,0.0725 0.2648,-0.32464 0.0973,-0.21169 0.028,-0.14622 0.4266,0.0534 -0.009,0.14884 0.0421,0.22882 0.17708,0.37987 0.26082,-0.009 0.15148,-0.39059 0.0271,-0.23108 -0.0187,-0.14793 0.42222,-0.0811 0.0375,0.14408 0.11095,0.20488 0.28541,0.30668 0.24528,-0.0887 0.0237,-0.41826 -0.0457,-0.22823 -0.0635,-0.13493 0.37656,-0.20789 0.0802,0.12607 0.16855,0.16057 0.36644,0.20301 0.20605,-0.16034 -0.10686,-0.40477 -0.11411,-0.20294 -0.10227,-0.10875 0.2942,-0.31407 0.1152,0.0949 0.20995,0.10064 0.41087,0.0802 0.14657,-0.21607 -0.22648,-0.35241 -0.17122,-0.15772 -0.13105,-0.0719 0.18288,-0.38933 0.13879,0.0545 0.23073,0.0308 0.41582,-0.0509 0.0725,-0.25055 -0.32464,-0.2648 -0.21169,-0.0973 -0.14622,-0.028 0.0534,-0.42661 0.14884,0.009 0.22881,-0.0421 0.37989,-0.17662 -0.008,-0.26081 -0.39061,-0.15195 -0.23108,-0.0271 -0.14793,0.0187 -0.0811,-0.42222 0.14408,-0.0375 0.20489,-0.11095 0.30668,-0.28541 -0.0887,-0.24529 -0.41826,-0.0237 -0.22824,0.0458 -0.13493,0.0635 -0.20789,-0.37655 0.12609,-0.0803 0.16056,-0.16854 0.20302,-0.36598 -0.16034,-0.20604 -0.40478,0.1064 -0.20294,0.1141 -0.10876,0.10228 -0.31406,-0.29421 0.095,-0.11474 0.10061,-0.21041 0.0802,-0.41088 -0.21606,-0.14656 -0.35241,0.22694 -0.15771,0.17122 -0.0719,0.13059 -0.3893,-0.18242 0.0545,-0.13879 0.0307,-0.2312 -0.051,-0.41581 -0.25055,-0.0725 -0.2648,0.32464 -0.0973,0.21168 -0.028,0.14668 -0.4266,-0.0534 0.009,-0.14884 -0.0421,-0.22928 -0.17663,-0.37989 z"
         style="fill:#1a1a1a;fill-opacity:1;stroke:#1a1a1a;stroke-width:0.23606217" />
      <g
         style="fill:#214478;fill-opacity:1;stroke:#ffffff;stroke-width:0.65399534"
         transform="matrix(0.62768189,-0.28555018,0.28555018,0.62768189,83.963868,202.46017)"
         id="g7840-8-4-9-7">
        <g
           style="fill:#ffffff;fill-opacity:1;stroke:#1a1a1a"
           transform="rotate(36.267179,46.646651,66.828057)"
           id="g40302-1-5">
          <circle
             r="1.711792"
             cy="44.597698"
             cx="14.582878"
             style="fill:#ffffff;fill-opacity:1;stroke:#1a1a1a;stroke-width:0.34199536"
             id="path3048-2-3-5-1-4-2" />
          <circle
             r="1.1751887"
             cy="41.438858"
             cx="14.582878"
             style="fill:#ffffff;fill-opacity:1;stroke:#1a1a1a;stroke-width:0.34199536"
             id="path3048-2-3-8-4-2-5-9" />
          <circle
             r="1.1751887"
             cy="47.826675"
             cx="14.582878"
             style="fill:#ffffff;fill-opacity:1;stroke:#1a1a1a;stroke-width:0.34199536"
             id="path3048-2-3-6-9-0-9-9" />
          <circle
             r="1.1751887"
             cy="44.597698"
             cx="17.811853"
             style="fill:#ffffff;fill-opacity:1;stroke:#1a1a1a;stroke-width:0.34199536"
             id="path3048-2-3-6-8-6-6-7-3" />
          <circle
             r="1.1751887"
             cy="44.597698"
             cx="11.353902"
             style="fill:#ffffff;fill-opacity:1;stroke:#1a1a1a;stroke-width:0.34199536"
             id="path3048-2-3-6-8-4-3-1-1-8" />
        </g>
      </g>
    </g>
  </g>
</svg>
