<?xml version="1.0" encoding="UTF-8" standalone="no"?>
<!-- Created with Inkscape (http://www.inkscape.org/) -->

<svg
   xmlns:dc="http://purl.org/dc/elements/1.1/"
   xmlns:cc="http://creativecommons.org/ns#"
   xmlns:rdf="http://www.w3.org/1999/02/22-rdf-syntax-ns#"
   xmlns:svg="http://www.w3.org/2000/svg"
   xmlns="http://www.w3.org/2000/svg"
   xmlns:sodipodi="http://sodipodi.sourceforge.net/DTD/sodipodi-0.dtd"
   xmlns:inkscape="http://www.inkscape.org/namespaces/inkscape"
   width="600"
   height="600"
   viewBox="0 0 158.75 158.75"
   version="1.1"
   id="svg1052"
   inkscape:version="0.92.2 (5c3e80d, 2017-08-06)"
   sodipodi:docname="chemoton_logo1.svg">
  <defs
     id="defs1046" />
  <sodipodi:namedview
     id="base"
     pagecolor="#ffffff"
     bordercolor="#666666"
     borderopacity="1.0"
     inkscape:pageopacity="0.0"
     inkscape:pageshadow="2"
     inkscape:zoom="0.98994949"
     inkscape:cx="356.95733"
     inkscape:cy="165.76567"
     inkscape:document-units="mm"
     inkscape:current-layer="layer1"
     showgrid="false"
     inkscape:window-width="3840"
     inkscape:window-height="2061"
     inkscape:window-x="0"
     inkscape:window-y="28"
     inkscape:window-maximized="1"
     units="px" />
  <metadata
     id="metadata1049">
    <rdf:RDF>
      <cc:Work
         rdf:about="">
        <dc:format>image/svg+xml</dc:format>
        <dc:type
           rdf:resource="http://purl.org/dc/dcmitype/StillImage" />
        <dc:title></dc:title>
      </cc:Work>
    </rdf:RDF>
  </metadata>
  <g
     inkscape:label="Layer 1"
     inkscape:groupmode="layer"
     id="layer1"
     transform="translate(0,-138.25001)">
    <g
       id="g44907"
       transform="matrix(2.3803119,0,0,2.3803119,-18.150192,125.96736)">
      <path
         sodipodi:nodetypes="ccccccc"
         inkscape:connector-curvature="0"
         id="path2304-5-7-5-6-2-4"
         d="m 53.453368,16.890241 a 4.2167478,4.2196605 0 0 1 3.547924,1.939219 l 6.910238,10.765872 a 4.2167478,4.2196605 0 0 1 0.248861,4.116185 L 52.559086,57.738994 A 4.2167478,4.2196605 0 0 1 48.7623,60.122902 H 33.180919 a 4.2167478,4.2196605 0 0 1 -3.7968,-2.383908 L 17.78281,33.711517 a 4.2167478,4.2196605 0 0 1 0.248868,-4.116185 l 6.910235,-10.76586 a 4.2167478,4.2196605 0 0 1 3.54792,-1.939231 z"
         style="fill:#214478;fill-opacity:1;stroke:#214478;stroke-width:0.56677127;stroke-linecap:butt;stroke-linejoin:miter;stroke-miterlimit:4;stroke-dasharray:none;stroke-opacity:1" />
      <g
         transform="matrix(1.4179797,0,0,1.4179797,-104.24043,-4.9039495)"
         id="g42668">
        <path
           inkscape:connector-curvature="0"
           style="fill:#ffffff;fill-opacity:1;stroke:#ffffff;stroke-width:0.3570413"
           d="m 386.51172,69.197266 -0.53906,1.386718 -0.37891,1.388672 -1.25977,0.06641 -0.52148,-1.341796 -0.68164,-1.324219 -1.07422,0.113281 -0.39258,1.435547 -0.23047,1.421875 -1.24609,0.197266 -0.6582,-1.279297 -0.81836,-1.246094 -1.05664,0.226563 -0.24024,1.46875 -0.0801,1.435546 -1.21875,0.328125 -0.78906,-1.205078 -0.94336,-1.152343 -1.02734,0.333984 -0.0859,1.486328 0.0703,1.4375 -1.17773,0.453125 -0.91016,-1.115234 -1.05664,-1.048829 -0.98828,0.441407 0.0703,1.486328 0.22071,1.421875 -1.125,0.572266 -1.02149,-1.013672 -1.16211,-0.929688 -0.93554,0.539063 0.22461,1.472656 0.36718,1.390625 -1.05664,0.6875 -1.12304,-0.900391 -1.25196,-0.804687 -0.875,0.634765 0.37891,1.439453 0.50976,1.345704 -0.98046,0.792968 -1.20899,-0.777343 -1.33008,-0.669922 -0.80468,0.722656 0.52734,1.392578 0.64844,1.285156 -0.89258,0.892579 -1.28516,-0.648438 -1.39062,-0.527344 -0.72461,0.802735 0.66992,1.330078 0.7793,1.210937 -0.79493,0.980469 -1.3457,-0.511719 -1.43945,-0.376953 -0.63477,0.873047 0.80469,1.253906 0.90039,1.121094 -0.68555,1.058594 -1.39257,-0.367188 -1.47071,-0.226562 -0.54101,0.9375 0.93164,1.160156 1.01367,1.021484 -0.57422,1.125 -1.42187,-0.220703 -1.48633,-0.07031 L 347.85938,95 l 1.04687,1.058594 1.11523,0.910156 -0.45312,1.175781 -1.4375,-0.06836 -1.48633,0.08398 -0.33398,1.029297 1.15234,0.941402 1.20508,0.78907 -0.32617,1.21875 -1.4375,0.0801 -1.46875,0.24023 -0.22461,1.0586 1.24414,0.8164 1.2793,0.65821 -0.19727,1.24608 -1.41992,0.23047 -1.4375,0.39258 -0.11133,1.07422 1.32226,0.68359 1.3418,0.51953 -0.0664,1.25977 -1.38868,0.3789 -1.38672,0.54102 v 1.08008 l 1.38672,0.54101 1.38868,0.37696 0.0664,1.25976 -1.3418,0.52149 -1.32226,0.68164 0.11133,1.07617 1.4375,0.39258 1.41992,0.23047 0.19727,1.24609 -1.2793,0.6582 -1.24414,0.81641 0.22461,1.05664 1.46875,0.24023 1.4375,0.082 0.32617,1.21876 -1.20508,0.7871 -1.15234,0.94336 0.33398,1.02735 1.48633,0.0859 1.4375,-0.0703 0.45312,1.17774 -1.11523,0.91015 -1.04687,1.0586 0.43945,0.98632 1.48633,-0.0703 1.42187,-0.21875 0.57422,1.12305 -1.01367,1.02148 -0.93164,1.16211 0.54101,0.93555 1.47071,-0.22461 1.39257,-0.36719 0.68555,1.0586 -0.90039,1.12109 -0.80469,1.25195 0.63477,0.875 1.43945,-0.3789 1.3457,-0.50977 0.79493,0.98047 -0.7793,1.21094 -0.66992,1.32812 0.72461,0.80469 1.39062,-0.52734 1.28516,-0.64844 0.89258,0.89258 -0.64844,1.28515 -0.52734,1.39063 0.80468,0.72461 1.33008,-0.66992 1.20899,-0.7793 0.98046,0.79492 -0.50976,1.3457 -0.37891,1.43946 0.875,0.63476 1.25196,-0.80468 1.12304,-0.90039 1.05664,0.68554 -0.36718,1.39258 -0.22461,1.4707 0.93554,0.54102 1.16211,-0.93163 1.02149,-1.01367 1.125,0.57226 -0.22071,1.42383 -0.0703,1.48633 0.98828,0.43945 1.05664,-1.04687 0.91016,-1.11524 1.17773,0.45117 -0.0703,1.43945 0.0859,1.48438 1.02734,0.33399 0.94336,-1.15039 0.78906,-1.20508 1.21875,0.32617 0.0801,1.4375 0.24024,1.46875 1.05664,0.22461 0.81836,-1.24414 0.6582,-1.2793 1.24609,0.19727 0.23047,1.41992 0.39258,1.43555 1.07422,0.11328 0.68164,-1.32227 0.52148,-1.3418 1.25977,0.0664 0.37891,1.38866 0.53906,1.38672 h 1.08203 l 0.53906,-1.38672 0.37891,-1.38866 1.25976,-0.0664 0.52149,1.3418 0.68164,1.32227 1.07617,-0.11328 0.39063,-1.43555 0.23047,-1.41992 1.24609,-0.19727 0.66015,1.2793 0.81641,1.24414 1.05664,-0.22461 0.24024,-1.46875 0.082,-1.4375 1.21679,-0.32617 0.78907,1.20508 0.94336,1.15039 1.02734,-0.33399 0.0859,-1.48438 -0.0703,-1.43945 1.17774,-0.45117 0.91016,1.11524 1.05664,1.04687 0.98828,-0.43945 -0.0703,-1.48633 -0.21874,-1.42383 1.12304,-0.57226 1.02149,1.01367 1.16211,0.93163 0.93554,-0.54102 -0.22461,-1.4707 -0.36718,-1.39258 1.05664,-0.68554 1.12304,0.90039 1.25196,0.80468 0.875,-0.63476 -0.37891,-1.43946 -0.50977,-1.3457 0.98047,-0.79492 1.21094,0.7793 1.32813,0.66992 0.80468,-0.72461 -0.52734,-1.39063 -0.64844,-1.28515 0.89258,-0.89258 1.28516,0.64844 1.39257,0.52734 0.72266,-0.80469 -0.66992,-1.32812 -0.7793,-1.21094 0.79492,-0.98047 1.34571,0.50977 1.43945,0.3789 0.63477,-0.875 -0.80469,-1.25195 -0.90039,-1.12109 0.6875,-1.0586 1.39062,0.36719 1.47071,0.22461 0.54101,-0.93555 -0.92969,-1.16211 -1.01562,-1.02148 0.57422,-1.12305 1.42187,0.21875 1.48633,0.0703 0.43945,-0.98632 -1.04687,-1.0586 -1.11524,-0.91015 0.45313,-1.17774 1.4375,0.0703 1.48633,-0.0859 0.33398,-1.02735 -1.15234,-0.94336 -1.20508,-0.7871 0.32812,-1.21876 1.43555,-0.082 1.46875,-0.24023 0.22656,-1.05664 -1.24609,-0.81641 -1.2793,-0.6582 0.19727,-1.24609 1.42187,-0.23047 1.43555,-0.39258 0.11328,-1.07617 -1.32422,-0.68164 -1.34179,-0.52149 0.0664,-1.25976 1.38867,-0.37696 1.38672,-0.54101 v -1.08008 l -1.38672,-0.54102 -1.38867,-0.3789 -0.0664,-1.25977 1.34179,-0.51953 1.32422,-0.68359 -0.11328,-1.07422 -1.43555,-0.39258 -1.42187,-0.23047 -0.19727,-1.24608 1.2793,-0.65821 1.24609,-0.8164 -0.22656,-1.0586 -1.46875,-0.24023 -1.43555,-0.0801 -0.32812,-1.21875 1.20508,-0.78907 1.15234,-0.941402 -0.33398,-1.029297 -1.48633,-0.08398 -1.4375,0.06836 -0.45313,-1.175781 1.11524,-0.910156 1.0469,-1.058594 -0.43945,-0.988281 -1.48633,0.07031 -1.42187,0.220703 -0.57422,-1.125 1.01562,-1.021484 0.92969,-1.160156 -0.54101,-0.9375 -1.47071,0.226562 -1.39062,0.367188 -0.6875,-1.058594 0.90039,-1.121094 0.80469,-1.253906 -0.63477,-0.873047 -1.43945,0.376953 -1.34571,0.511719 -0.79492,-0.980469 0.7793,-1.210937 0.66992,-1.330078 -0.72266,-0.802735 -1.39257,0.527344 -1.28516,0.648438 -0.89258,-0.892579 0.64844,-1.285156 0.52734,-1.392578 -0.80468,-0.722656 -1.32813,0.669922 -1.21094,0.777343 -0.98047,-0.792968 0.50977,-1.345704 0.37891,-1.439453 -0.875,-0.634765 -1.25196,0.804687 -1.12304,0.900391 -1.05664,-0.6875 0.36718,-1.390625 0.22461,-1.472656 -0.93554,-0.539063 -1.16211,0.929688 -1.02149,1.013672 -1.12304,-0.572266 0.21874,-1.421875 0.0703,-1.486328 -0.98828,-0.441407 -1.05664,1.048829 -0.91016,1.115234 -1.17774,-0.453125 0.0703,-1.4375 -0.0859,-1.486328 -1.02734,-0.333984 -0.94336,1.152343 -0.78907,1.205078 -1.21679,-0.328125 -0.082,-1.435546 -0.24024,-1.46875 -1.05664,-0.226563 -0.81641,1.246094 -0.66015,1.279297 -1.24609,-0.197266 -0.23047,-1.421875 -0.39063,-1.435547 -1.07617,-0.113281 -0.68164,1.324219 -0.52149,1.341796 -1.25976,-0.06641 -0.37891,-1.388672 -0.53906,-1.386718 z m 0.54101,4.828125 a 37.833951,37.8327 0 0 1 37.83399,37.832029 37.833951,37.8327 0 0 1 -37.83399,37.83399 37.833951,37.8327 0 0 1 -37.83398,-37.83399 37.833951,37.8327 0 0 1 37.83398,-37.832029 z"
           transform="scale(0.26458333)"
           id="path17058-1" />
        <path
           sodipodi:nodetypes="cc"
           inkscape:connector-curvature="0"
           id="path1941-8-6-6-9-3-3-1"
           d="M 104.30664,22.157024 99.007896,24.77794"
           style="fill:#ffffff;stroke:#ffffff;stroke-width:0.67429984;stroke-linecap:butt;stroke-linejoin:miter;stroke-miterlimit:4;stroke-dasharray:none;stroke-opacity:1" />
        <path
           sodipodi:nodetypes="cc"
           inkscape:connector-curvature="0"
           id="path1941-5-5-7-4-1-8"
           d="m 99.007896,24.77794 4.295364,4.294259"
           style="fill:#ffffff;stroke:#ffffff;stroke-width:0.67429984;stroke-linecap:butt;stroke-linejoin:miter;stroke-miterlimit:4;stroke-dasharray:none;stroke-opacity:1" />
        <path
           sodipodi:nodetypes="cc"
           inkscape:connector-curvature="0"
           id="path1941-8-6-1-0-3-3"
           d="m 103.30326,29.072199 5.38898,-2.232665"
           style="fill:#ffffff;stroke:#ffffff;stroke-width:0.67429984;stroke-linecap:butt;stroke-linejoin:miter;stroke-miterlimit:4;stroke-dasharray:none;stroke-opacity:1" />
        <path
           sodipodi:nodetypes="cc"
           inkscape:connector-curvature="0"
           id="path1941-1-3-1-3-8"
           d="m 104.30664,22.157024 4.3856,4.68251"
           style="fill:#ffffff;stroke:#ffffff;stroke-width:0.67429984;stroke-linecap:butt;stroke-linejoin:miter;stroke-miterlimit:4;stroke-dasharray:none;stroke-opacity:1" />
        <ellipse
           transform="matrix(0.87727314,-0.4799915,0.48001589,0.8772598,0,0)"
           cy="69.501419"
           cx="80.863441"
           id="path1069-3-3-6-9-1-5-8"
           style="fill:#ffffff;fill-opacity:1;fill-rule:nonzero;stroke:#ffffff;stroke-width:0;stroke-miterlimit:4;stroke-dasharray:none;stroke-opacity:1"
           rx="1.6771803"
           ry="1.6771505" />
        <ellipse
           transform="matrix(0.87727314,-0.4799915,0.48001589,0.8772598,0,0)"
           cy="75.714867"
           cx="82.464394"
           id="path1069-3-8-3-0-7-3-9"
           style="fill:#ffffff;fill-opacity:1;fill-rule:nonzero;stroke:#ffffff;stroke-width:0;stroke-miterlimit:4;stroke-dasharray:none;stroke-opacity:1"
           rx="1.6771803"
           ry="1.6771505" />
        <ellipse
           transform="matrix(0.87727314,-0.4799915,0.48001589,0.8772598,0,0)"
           cy="69.257332"
           cx="74.956993"
           id="path1069-3-6-6-9-6-7-0"
           style="fill:#ffffff;fill-opacity:1;fill-rule:nonzero;stroke:#ffffff;stroke-width:0;stroke-miterlimit:4;stroke-dasharray:none;stroke-opacity:1"
           rx="1.6771803"
           ry="1.6771505" />
        <g
           transform="matrix(-0.06250217,0.21367818,-0.21368523,-0.06250011,132.96254,16.705595)"
           id="g4977-7-8-9-6"
           style="fill:#ffffff;stroke:#ffffff;stroke-width:2.28705716">
          <path
             style="fill:#ffffff;stroke:#ffffff;stroke-width:3.02872586;stroke-linecap:butt;stroke-linejoin:miter;stroke-miterlimit:4;stroke-dasharray:none;stroke-opacity:1"
             d="M 97.447149,88.876867 72.364744,91.895988"
             id="path1941-9-57-7-2-5-1"
             inkscape:connector-curvature="0"
             sodipodi:nodetypes="cc" />
          <path
             style="opacity:1;fill:#ffffff;fill-opacity:1;stroke:#ffffff;stroke-width:3.02476025;stroke-linecap:butt;stroke-linejoin:miter;stroke-miterlimit:4;stroke-dasharray:none;stroke-opacity:1"
             d="M 97.447149,88.876867 120.60446,99.978598"
             id="path1941-4-1-7-7-99-6"
             inkscape:connector-curvature="0"
             sodipodi:nodetypes="cc" />
          <circle
             style="fill:#ffffff;fill-opacity:1;fill-rule:nonzero;stroke:#ffffff;stroke-width:0;stroke-miterlimit:4;stroke-dasharray:none;stroke-opacity:1"
             id="path1069-3-7-0-2-4-9-45"
             cx="42.826168"
             cy="124.73936"
             r="7.5332575"
             transform="rotate(-28.685643)" />
          <circle
             style="fill:#ffffff;fill-opacity:1;fill-rule:nonzero;stroke:#ffffff;stroke-width:0;stroke-miterlimit:4;stroke-dasharray:none;stroke-opacity:1"
             id="path1069-3-2-3-9-0-96-8"
             cx="57.797527"
             cy="145.61583"
             r="7.5332575"
             transform="rotate(-28.685643)" />
        </g>
        <g
           transform="matrix(0.17134518,-0.14215271,0.1421574,0.17133953,82.314426,14.722628)"
           id="g4981-2-4-1-2"
           style="fill:#ffffff;stroke:#ffffff;stroke-width:2.28705716">
          <path
             style="fill:#ffffff;stroke:#ffffff;stroke-width:3.02872586;stroke-linecap:butt;stroke-linejoin:miter;stroke-miterlimit:4;stroke-dasharray:none;stroke-opacity:1"
             d="M -2.1108582,90.220868 28.866677,82.635857"
             id="path1941-96-5-6-5-6-37"
             inkscape:connector-curvature="0"
             sodipodi:nodetypes="cc" />
          <circle
             style="fill:#ffffff;fill-opacity:1;fill-rule:nonzero;stroke:#ffffff;stroke-width:0;stroke-miterlimit:4;stroke-dasharray:none;stroke-opacity:1"
             id="path1069-3-6-4-9-2-0-8-6"
             cx="-45.179928"
             cy="78.122673"
             r="7.5332575"
             transform="rotate(-28.685643)" />
        </g>
        <ellipse
           transform="matrix(0.87727314,-0.4799915,0.48001589,0.8772598,0,0)"
           cy="75.08905"
           cx="76.668358"
           id="path1069-3-9-1-9-7-7"
           style="fill:#ffffff;fill-opacity:1;fill-rule:nonzero;stroke:#ffffff;stroke-width:0;stroke-miterlimit:4;stroke-dasharray:none;stroke-opacity:1"
           rx="1.6771803"
           ry="1.6771505" />
      </g>
    </g>
  </g>
</svg>
